<?xml version="1.0" encoding="UTF-8"?>
<svg viewBox="0 0 26 25" version="1.1" xmlns="http://www.w3.org/2000/svg" xmlns:xlink="http://www.w3.org/1999/xlink">
  <g stroke="none" stroke-width="1" fill="none" fill-rule="evenodd" transform="translate(1, 1)">
    <path d="M18.78,22.08 C18.78,22.71 19.11,23.30 19.66,23.61 C20.20,23.93 20.87,23.93 21.42,23.61 C21.96,23.30 22.30,22.71 22.30,22.08 C22.30,21.45 21.96,20.87 21.42,20.55 C20.87,20.24 20.20,20.24 19.66,20.55 C19.11,20.87 18.78,21.45 18.78,22.087234" fill="#2b313d" />
    <path d="M6.54,22.08 C6.54,22.71 6.88,23.30 7.42,23.61 C7.97,23.93 8.64,23.93 9.18,23.61 C9.73,23.30 10.06,22.71 10.06,22.08 C10.06,21.45 9.73,20.87 9.18,20.55 C8.64,20.24 7.97,20.24 7.42,20.55 C6.88,20.87 6.54,21.45 6.54,22.087234" fill="#2b313d" />
    <path d="M0,0 L0.83,0.46 C2.68,1.48 3.97,3.30 4.33,5.38 L5.84,14.13 C6.18,16.05 7.84,17.45 9.78,17.45 L18.93,17.45 C20.84,17.45 22.48,16.09 22.85,14.22 L23.98,8.46 C24.19,7.38 23.48,6.33 22.40,6.12 C22.27,6.09 22.14,6.08 22.01,6.08 L15.04,6.08 L7.92,6.0830674" stroke="#2b313d" stroke-width="2" stroke-linecap="round" stroke-linejoin="round" />
    <path d="M9.81,11.71 L19.46,11.7141779" stroke="#3F86FF" stroke-width="2.5" stroke-linecap="round" stroke-linejoin="round" />
  </g>
</svg>
