<?xml version="1.0" encoding="UTF-8"?>
<svg viewBox="0 0 12 16" version="1.1" xmlns="http://www.w3.org/2000/svg" xmlns:xlink="http://www.w3.org/1999/xlink">
  <g stroke="none" stroke-width="1" fill="none" fill-rule="evenodd" transform="translate(-10, -90)">
    <rect fill="#fff" x="0" y="0" width="375" height="902" />
    <rect fill="#fff" x="0" y="82" width="375" height="32" />
    <path d="M16,90 C12.68,90 10,92.71 10,96.05 C10,99.39 16,106 16,106 C16,106 22,99.39 22,96.05 C22,92.71 19.31,90 16,90 Z M16,99.06 C14.41,99.06 13.13,97.75 13.13,96.13 C13.13,94.51 14.41,93.20 16,93.20 C17.58,93.20 18.86,94.51 18.86,96.13 C18.86,97.75 17.58,99.06 16,99.06 Z" fill="#3F86FF" />
  </g>
</svg>
