<?xml version="1.0" encoding="UTF-8"?>
<svg viewBox="0 0 24 20" version="1.1" xmlns="http://www.w3.org/2000/svg" xmlns:xlink="http://www.w3.org/1999/xlink">
  <g fill="#3F86FF">
    <path d="M0,9.62 C0,10.19 0.30,10.73 0.80,11.02 C1.30,11.31 1.92,11.31 2.42,11.02 C2.92,10.73 3.22,10.19 3.22,9.62 C3.22,9.04 2.92,8.50 2.42,8.21 C1.92,7.92 1.30,7.92 0.80,8.21 C0.30,8.50 0,9.04 0,9.62020633" />
    <path d="M0,17.62 C0,18.19 0.30,18.73 0.80,19.02 C1.30,19.31 1.92,19.31 2.42,19.02 C2.92,18.73 3.22,18.19 3.22,17.62 C3.22,17.04 2.92,16.50 2.42,16.21 C1.92,15.92 1.30,15.92 0.80,16.21 C0.30,16.50 0,17.04 0,17.6202063" />
    <path d="M0.01,1.62 C0.01,2.19 0.32,2.73 0.82,3.02 C1.32,3.31 1.93,3.31 2.43,3.02 C2.93,2.73 3.24,2.19 3.24,1.62 C3.24,1.04 2.93,0.50 2.43,0.21 C1.93,-0.07 1.32,-0.07 0.82,0.21 C0.32,0.50 0.01,1.04 0.01,1.62020633" />
  </g>
  <g stroke="#2b313d" stroke-width="2" stroke-linecap="round" stroke-linejoin="round">
    <path d="M8.24,9.73 L22.41,9.73799642" />
    <path d="M8.24,1.5 L22.41,1.5" />
    <path d="M8.24,17.5 L22.41,17.5" />
  </g>
</svg>
